<svg width="120" height="130" viewBox="0 0 120 130" xmlns="http://www.w3.org/2000/svg"><title>logo1</title><g fill="none" fill-rule="evenodd"><path d="M85.697 76.898c-1.14 1.197-2.7 2.56-4.868 2.353l-10.835-.91c-1.47-.137-2.43-.75-3.64-2.494-.772-.958-1.88-1.652-3.183-1.887-2.89-.525-5.66 1.394-6.184 4.287-.522 2.89 1.397 5.658 4.29 6.18 1.292.234 2.556-.018 3.61-.626 1.998-1.16 2.942-1.426 4.308-1.035l10.44 3.163c2.078.628 2.904 1.554 3.714 3.517 1.473 3.568 4.678 6.337 8.76 7.077 6.374 1.154 12.482-3.08 13.636-9.454 1.15-6.376-3.08-12.478-9.456-13.633-.707-.128-1.408-.188-2.1-.188-3.268 0-6.322 1.37-8.493 3.65m-38.614-7.415c-2.763.994-4.2 4.04-3.208 6.803.44 1.236 1.293 2.206 2.347 2.81 2.004 1.157 2.707 1.84 3.053 3.216l2.48 10.628c.494 2.112.107 3.293-1.186 4.973-2.36 3.063-3.154 7.22-1.75 11.127 2.186 6.098 8.904 9.267 15.002 7.08 6.097-2.19 9.268-8.907 7.08-15.007-1.39-3.858-4.588-6.543-8.297-7.44-1.605-.388-3.566-1.058-4.472-3.04l-4.63-9.833c-.612-1.347-.562-2.482.342-4.4.446-1.148.49-2.457.044-3.703-.78-2.173-2.828-3.526-5.01-3.526-.597 0-1.203.103-1.797.314m-4.86-12.337c-.847 1.002-1.26 2.223-1.26 3.44.003 2.31-.237 3.263-1.26 4.247l-7.958 7.463c-1.583 1.486-2.798 1.74-4.904 1.46-3.827-.508-7.828.88-10.51 4.046-4.185 4.946-3.572 12.346 1.374 16.535 4.944 4.187 12.346 3.572 16.533-1.372 2.648-3.13 3.376-7.243 2.3-10.903-.47-1.586-.867-3.62.394-5.397l6.203-8.922c.858-1.203 1.867-1.73 3.98-1.903 1.216-.19 2.372-.803 3.23-1.817 1.898-2.24 1.62-5.598-.624-7.5-1-.842-2.22-1.257-3.434-1.257-1.512-.002-3.01.64-4.063 1.882m-28.715-13.64c-1.153 6.374 3.078 12.478 9.455 13.632 4.036.73 7.96-.698 10.59-3.46 1.143-1.198 2.702-2.56 4.87-2.356l10.83.91c1.473.14 2.432.755 3.64 2.498.774.953 1.88 1.65 3.19 1.888 2.89.52 5.657-1.4 6.18-4.292.523-2.89-1.4-5.657-4.287-6.18-1.288-.233-2.557.02-3.61.628-2 1.156-2.946 1.426-4.305 1.036l-10.444-3.163c-2.08-.63-2.906-1.555-3.716-3.518-1.472-3.57-4.677-6.34-8.76-7.077-.705-.128-1.408-.19-2.1-.19-5.566 0-10.506 3.976-11.532 9.644m71.508-5.896c-2.652 3.13-3.377 7.247-2.302 10.906.468 1.585.87 3.62-.394 5.394l-6.2 8.925c-.856 1.204-1.87 1.727-3.986 1.9-1.214.193-2.367.806-3.226 1.82-1.898 2.24-1.617 5.598.625 7.496 2.24 1.898 5.6 1.62 7.5-.624.843-1 1.257-2.22 1.257-3.438-.002-2.31.236-3.264 1.26-4.248l7.957-7.463c1.583-1.486 2.8-1.738 4.902-1.458 3.83.507 7.828-.883 10.51-4.05 4.187-4.943 3.573-12.345-1.373-16.534-2.203-1.865-4.896-2.777-7.57-2.777-3.33 0-6.64 1.41-8.96 4.15M55.432 14.455c-6.1 2.19-9.27 8.906-7.08 15.004 1.383 3.86 4.584 6.545 8.293 7.443 1.606.388 3.567 1.057 4.472 3.038l4.627 9.836c.615 1.345.564 2.483-.342 4.4-.44 1.148-.488 2.453-.038 3.703.99 2.766 4.036 4.2 6.803 3.21 2.765-.992 4.203-4.04 3.21-6.806-.443-1.234-1.297-2.2-2.35-2.81-2-1.153-2.705-1.84-3.048-3.214l-2.484-10.623c-.492-2.116-.108-3.296 1.19-4.977 2.353-3.06 3.15-7.22 1.75-11.124-1.72-4.79-6.233-7.773-11.043-7.773-1.315 0-2.653.222-3.96.692" fill="#1874BD"/><path d="M59.967 130c-6.878 0-13.123-2.73-17.71-7.165-3.766-3.643-6.413-8.44-7.375-13.82-5.184 1.978-10.736 2.152-15.848.74-6.22-1.723-11.796-5.79-15.274-11.815l2.165-1.256-2.17 1.256c-.045-.075-.08-.148-.117-.226-3.34-5.91-4.063-12.594-2.536-18.702 1.27-5.08 4.1-9.77 8.277-13.292-4.305-3.5-7.23-8.22-8.56-13.358C-.8 46.117-.062 39.256 3.42 33.228l-.004-.004c.04-.072.086-.14.132-.208 3.455-5.85 8.88-9.82 14.934-11.552 5.03-1.44 10.506-1.33 15.65.53.876-5.482 3.503-10.376 7.284-14.097C46.016 3.367 52.33.572 59.284.572c6.877 0 13.12 2.73 17.707 7.166 3.77 3.642 6.42 8.438 7.38 13.818 5.184-1.977 10.736-2.153 15.848-.738 6.22 1.722 11.794 5.788 15.276 11.816l-2.17 1.253 2.176-1.253c.04.074.078.147.116.224 3.335 5.91 4.06 12.593 2.534 18.7-1.272 5.083-4.1 9.77-8.275 13.294 4.302 3.5 7.226 8.22 8.556 13.357 1.62 6.245.886 13.106-2.596 19.134l.004.005c-.038.07-.084.14-.134.206-3.45 5.85-8.88 9.82-14.928 11.554-5.035 1.437-10.51 1.33-15.65-.53-.882 5.48-3.505 10.376-7.288 14.097-4.602 4.53-10.914 7.323-17.87 7.323m-14.24-10.772c3.682 3.563 8.703 5.754 14.24 5.754 5.6 0 10.673-2.242 14.36-5.874 3.66-3.598 5.97-8.563 6.115-14.06-.03-.454.064-.918.29-1.348.654-1.222 2.175-1.684 3.396-1.034l-.004.01c4.852 2.59 10.325 3.027 15.272 1.612 4.87-1.394 9.23-4.575 11.996-9.255.03-.066.062-.13.1-.196l2.175 1.256-2.17-1.256c2.797-4.842 3.39-10.358 2.09-15.374-1.286-4.973-4.435-9.46-9.14-12.334-.4-.203-.75-.51-1-.918-.737-1.176-.373-2.724.8-3.455l1.328 2.13-1.325-2.128c4.676-2.91 7.787-7.426 9.036-12.416 1.227-4.91.65-10.276-2.018-15.017-.044-.058-.082-.122-.118-.184l.004-.002c-2.797-4.847-7.278-8.118-12.272-9.5-4.947-1.37-10.407-.887-15.248 1.748-.376.246-.82.396-1.298.414-1.387.044-2.547-1.04-2.593-2.427l2.51-.084-2.5.078c-.184-5.5-2.537-10.452-6.233-14.026C69.84 7.784 64.82 5.59 59.284 5.59c-5.6 0-10.67 2.243-14.36 5.874-3.66 3.6-5.973 8.562-6.115 14.06.028.455-.062.918-.293 1.35-.652 1.22-2.173 1.683-3.394 1.03l.005-.008c-4.854-2.59-10.325-3.027-15.278-1.61-4.868 1.392-9.225 4.574-11.992 9.253-.03.065-.064.13-.1.195L5.585 34.48l2.165 1.255C4.953 40.58 4.36 46.093 5.66 51.11c1.29 4.973 4.44 9.46 9.142 12.334.4.2.75.51 1.003.914.732 1.177.372 2.727-.804 3.457l-1.326-2.13 1.323 2.128c-4.672 2.91-7.787 7.425-9.034 12.415-1.228 4.913-.65 10.277 2.017 15.015.042.06.082.122.118.186h-.006c2.8 4.85 7.282 8.12 12.273 9.5 4.948 1.373 10.41.89 15.25-1.744.375-.247.817-.398 1.3-.416 1.382-.042 2.542 1.044 2.59 2.428l-2.507.082 2.496-.08c.185 5.503 2.538 10.455 6.234 14.028" fill="#CCC"/></g></svg>